<mxfile host="app.diagrams.net" agent="Mozilla/5.0 (Windows NT 10.0; Win64; x64) AppleWebKit/537.36 (KHTML, like Gecko) Chrome/132.0.0.0 Safari/537.36" version="26.0.14">
  <diagram name="Page-1" id="b921l-qHEVl4FpEQGDy-">
    <mxGraphModel dx="1192" dy="918" grid="0" gridSize="10" guides="1" tooltips="1" connect="1" arrows="1" fold="1" page="0" pageScale="1" pageWidth="850" pageHeight="1100" math="0" shadow="0">
      <root>
        <mxCell id="0" />
        <mxCell id="1" parent="0" />
        <mxCell id="Oy01Yo5cFXe6RZpeeBl5-1" value="Siswa" style="whiteSpace=wrap;html=1;align=center;" vertex="1" parent="1">
          <mxGeometry x="-169" y="70" width="69" height="32" as="geometry" />
        </mxCell>
        <mxCell id="Oy01Yo5cFXe6RZpeeBl5-2" value="Petugas" style="whiteSpace=wrap;html=1;align=center;" vertex="1" parent="1">
          <mxGeometry x="73" y="421.5" width="77" height="35" as="geometry" />
        </mxCell>
        <mxCell id="Oy01Yo5cFXe6RZpeeBl5-3" value="Buku" style="whiteSpace=wrap;html=1;align=center;" vertex="1" parent="1">
          <mxGeometry x="345" y="68" width="87" height="35" as="geometry" />
        </mxCell>
        <mxCell id="Oy01Yo5cFXe6RZpeeBl5-4" value="Kelas" style="ellipse;whiteSpace=wrap;html=1;align=center;" vertex="1" parent="1">
          <mxGeometry x="-178" y="3" width="79" height="26" as="geometry" />
        </mxCell>
        <mxCell id="Oy01Yo5cFXe6RZpeeBl5-5" value="NIS" style="ellipse;whiteSpace=wrap;html=1;align=center;fontStyle=4;" vertex="1" parent="1">
          <mxGeometry x="-257" y="19" width="52" height="22" as="geometry" />
        </mxCell>
        <mxCell id="Oy01Yo5cFXe6RZpeeBl5-6" value="Nama" style="ellipse;whiteSpace=wrap;html=1;align=center;" vertex="1" parent="1">
          <mxGeometry x="-274" y="79" width="79" height="26" as="geometry" />
        </mxCell>
        <mxCell id="Oy01Yo5cFXe6RZpeeBl5-7" value="id_peminjaman" style="ellipse;whiteSpace=wrap;html=1;align=center;fontStyle=4;" vertex="1" parent="1">
          <mxGeometry x="44" y="-34" width="106" height="35" as="geometry" />
        </mxCell>
        <mxCell id="Oy01Yo5cFXe6RZpeeBl5-8" value="Meminjam" style="shape=rhombus;perimeter=rhombusPerimeter;whiteSpace=wrap;html=1;align=center;" vertex="1" parent="1">
          <mxGeometry x="63" y="61" width="95" height="53" as="geometry" />
        </mxCell>
        <mxCell id="mbz7nndvcrWf5GeIh5fR-1" value="id_buku" style="ellipse;whiteSpace=wrap;html=1;align=center;" vertex="1" parent="1">
          <mxGeometry x="-21" y="3" width="79" height="26" as="geometry" />
        </mxCell>
        <mxCell id="mbz7nndvcrWf5GeIh5fR-2" value="id_petugas" style="ellipse;whiteSpace=wrap;html=1;align=center;" vertex="1" parent="1">
          <mxGeometry x="-37" y="44" width="79" height="26" as="geometry" />
        </mxCell>
        <mxCell id="mbz7nndvcrWf5GeIh5fR-3" value="nis" style="ellipse;whiteSpace=wrap;html=1;align=center;" vertex="1" parent="1">
          <mxGeometry x="142" y="-7" width="79" height="26" as="geometry" />
        </mxCell>
        <mxCell id="mbz7nndvcrWf5GeIh5fR-4" value="waktu_pjm" style="ellipse;whiteSpace=wrap;html=1;align=center;" vertex="1" parent="1">
          <mxGeometry x="164" y="29" width="79" height="26" as="geometry" />
        </mxCell>
        <mxCell id="mbz7nndvcrWf5GeIh5fR-5" value="id_buku" style="ellipse;whiteSpace=wrap;html=1;align=center;fontStyle=4;" vertex="1" parent="1">
          <mxGeometry x="377" y="-51" width="106" height="35" as="geometry" />
        </mxCell>
        <mxCell id="mbz7nndvcrWf5GeIh5fR-6" value="jenis" style="ellipse;whiteSpace=wrap;html=1;align=center;" vertex="1" parent="1">
          <mxGeometry x="463" y="-9" width="79" height="26" as="geometry" />
        </mxCell>
        <mxCell id="mbz7nndvcrWf5GeIh5fR-7" value="penerbit" style="ellipse;whiteSpace=wrap;html=1;align=center;" vertex="1" parent="1">
          <mxGeometry x="533" y="17" width="79" height="26" as="geometry" />
        </mxCell>
        <mxCell id="mbz7nndvcrWf5GeIh5fR-8" value="judul" style="ellipse;whiteSpace=wrap;html=1;align=center;" vertex="1" parent="1">
          <mxGeometry x="293" y="-11.5" width="79" height="26" as="geometry" />
        </mxCell>
        <mxCell id="mbz7nndvcrWf5GeIh5fR-9" value="jumlah" style="ellipse;whiteSpace=wrap;html=1;align=center;" vertex="1" parent="1">
          <mxGeometry x="480" y="51" width="79" height="26" as="geometry" />
        </mxCell>
        <mxCell id="mbz7nndvcrWf5GeIh5fR-12" value="id_petugas" style="ellipse;whiteSpace=wrap;html=1;align=center;fontStyle=4;" vertex="1" parent="1">
          <mxGeometry x="480" y="89" width="84" height="28" as="geometry" />
        </mxCell>
        <mxCell id="mbz7nndvcrWf5GeIh5fR-13" value="Mengelola" style="shape=rhombus;perimeter=rhombusPerimeter;whiteSpace=wrap;html=1;align=center;" vertex="1" parent="1">
          <mxGeometry x="346.5" y="409.5" width="84" height="53" as="geometry" />
        </mxCell>
        <mxCell id="mbz7nndvcrWf5GeIh5fR-14" value="id_petugas" style="ellipse;whiteSpace=wrap;html=1;align=center;fontStyle=4;" vertex="1" parent="1">
          <mxGeometry x="-1.5" y="382.5" width="84" height="28" as="geometry" />
        </mxCell>
        <mxCell id="mbz7nndvcrWf5GeIh5fR-15" value="Nama" style="ellipse;whiteSpace=wrap;html=1;align=center;" vertex="1" parent="1">
          <mxGeometry x="-45.5" y="421.5" width="79" height="26" as="geometry" />
        </mxCell>
        <mxCell id="mbz7nndvcrWf5GeIh5fR-16" value="no_hp" style="ellipse;whiteSpace=wrap;html=1;align=center;" vertex="1" parent="1">
          <mxGeometry x="-26.5" y="463.5" width="79" height="26" as="geometry" />
        </mxCell>
        <mxCell id="mbz7nndvcrWf5GeIh5fR-17" value="" style="endArrow=none;html=1;rounded=0;fontSize=12;startSize=8;endSize=8;curved=1;entryX=1;entryY=0.5;entryDx=0;entryDy=0;" edge="1" parent="1" source="Oy01Yo5cFXe6RZpeeBl5-8" target="Oy01Yo5cFXe6RZpeeBl5-1">
          <mxGeometry relative="1" as="geometry">
            <mxPoint x="33" y="229" as="sourcePoint" />
            <mxPoint x="193" y="229" as="targetPoint" />
          </mxGeometry>
        </mxCell>
        <mxCell id="mbz7nndvcrWf5GeIh5fR-18" value="N" style="resizable=0;html=1;whiteSpace=wrap;align=right;verticalAlign=bottom;" connectable="0" vertex="1" parent="mbz7nndvcrWf5GeIh5fR-17">
          <mxGeometry x="1" relative="1" as="geometry" />
        </mxCell>
        <mxCell id="mbz7nndvcrWf5GeIh5fR-19" value="" style="endArrow=none;html=1;rounded=0;fontSize=12;startSize=8;endSize=8;curved=1;entryX=0;entryY=0.5;entryDx=0;entryDy=0;exitX=1;exitY=0.5;exitDx=0;exitDy=0;" edge="1" parent="1" source="Oy01Yo5cFXe6RZpeeBl5-8" target="Oy01Yo5cFXe6RZpeeBl5-3">
          <mxGeometry relative="1" as="geometry">
            <mxPoint x="100" y="97" as="sourcePoint" />
            <mxPoint x="-90" y="96" as="targetPoint" />
          </mxGeometry>
        </mxCell>
        <mxCell id="mbz7nndvcrWf5GeIh5fR-20" value="N" style="resizable=0;html=1;whiteSpace=wrap;align=right;verticalAlign=bottom;" connectable="0" vertex="1" parent="mbz7nndvcrWf5GeIh5fR-19">
          <mxGeometry x="1" relative="1" as="geometry" />
        </mxCell>
        <mxCell id="mbz7nndvcrWf5GeIh5fR-21" value="" style="endArrow=none;html=1;rounded=0;fontSize=12;startSize=8;endSize=8;curved=1;entryX=0.425;entryY=1.029;entryDx=0;entryDy=0;entryPerimeter=0;exitX=0.5;exitY=0;exitDx=0;exitDy=0;" edge="1" parent="1" source="mbz7nndvcrWf5GeIh5fR-13" target="Oy01Yo5cFXe6RZpeeBl5-3">
          <mxGeometry relative="1" as="geometry">
            <mxPoint x="423" y="398" as="sourcePoint" />
            <mxPoint x="-80" y="106" as="targetPoint" />
          </mxGeometry>
        </mxCell>
        <mxCell id="mbz7nndvcrWf5GeIh5fR-22" value="N" style="resizable=0;html=1;whiteSpace=wrap;align=right;verticalAlign=bottom;" connectable="0" vertex="1" parent="mbz7nndvcrWf5GeIh5fR-21">
          <mxGeometry x="1" relative="1" as="geometry" />
        </mxCell>
        <mxCell id="mbz7nndvcrWf5GeIh5fR-26" value="" style="endArrow=none;html=1;rounded=0;fontSize=12;startSize=8;endSize=8;curved=1;entryX=1;entryY=0.5;entryDx=0;entryDy=0;exitX=0;exitY=0.5;exitDx=0;exitDy=0;" edge="1" parent="1" source="mbz7nndvcrWf5GeIh5fR-13" target="Oy01Yo5cFXe6RZpeeBl5-2">
          <mxGeometry relative="1" as="geometry">
            <mxPoint x="33" y="229" as="sourcePoint" />
            <mxPoint x="193" y="229" as="targetPoint" />
          </mxGeometry>
        </mxCell>
        <mxCell id="mbz7nndvcrWf5GeIh5fR-27" value="1" style="resizable=0;html=1;whiteSpace=wrap;align=right;verticalAlign=bottom;" connectable="0" vertex="1" parent="mbz7nndvcrWf5GeIh5fR-26">
          <mxGeometry x="1" relative="1" as="geometry" />
        </mxCell>
        <mxCell id="mbz7nndvcrWf5GeIh5fR-28" value="" style="endArrow=none;html=1;rounded=0;fontSize=12;startSize=8;endSize=8;curved=1;exitX=1;exitY=1;exitDx=0;exitDy=0;entryX=0;entryY=0;entryDx=0;entryDy=0;" edge="1" parent="1" source="Oy01Yo5cFXe6RZpeeBl5-5" target="Oy01Yo5cFXe6RZpeeBl5-1">
          <mxGeometry relative="1" as="geometry">
            <mxPoint x="33" y="250" as="sourcePoint" />
            <mxPoint x="-172" y="84" as="targetPoint" />
          </mxGeometry>
        </mxCell>
        <mxCell id="mbz7nndvcrWf5GeIh5fR-29" value="" style="endArrow=none;html=1;rounded=0;fontSize=12;startSize=8;endSize=8;curved=1;exitX=0.975;exitY=0.269;exitDx=0;exitDy=0;exitPerimeter=0;" edge="1" parent="1" source="Oy01Yo5cFXe6RZpeeBl5-6">
          <mxGeometry relative="1" as="geometry">
            <mxPoint x="-203" y="48" as="sourcePoint" />
            <mxPoint x="-170" y="72" as="targetPoint" />
          </mxGeometry>
        </mxCell>
        <mxCell id="mbz7nndvcrWf5GeIh5fR-30" value="" style="endArrow=none;html=1;rounded=0;fontSize=12;startSize=8;endSize=8;curved=1;exitX=0.5;exitY=1;exitDx=0;exitDy=0;entryX=0;entryY=0;entryDx=0;entryDy=0;" edge="1" parent="1" source="Oy01Yo5cFXe6RZpeeBl5-4" target="Oy01Yo5cFXe6RZpeeBl5-1">
          <mxGeometry relative="1" as="geometry">
            <mxPoint x="-193" y="58" as="sourcePoint" />
            <mxPoint x="-149" y="90" as="targetPoint" />
          </mxGeometry>
        </mxCell>
        <mxCell id="mbz7nndvcrWf5GeIh5fR-31" value="" style="endArrow=none;html=1;rounded=0;fontSize=12;startSize=8;endSize=8;curved=1;exitX=0.5;exitY=1;exitDx=0;exitDy=0;entryX=0.5;entryY=0;entryDx=0;entryDy=0;" edge="1" parent="1" source="Oy01Yo5cFXe6RZpeeBl5-7" target="Oy01Yo5cFXe6RZpeeBl5-8">
          <mxGeometry relative="1" as="geometry">
            <mxPoint x="-183" y="68" as="sourcePoint" />
            <mxPoint x="-139" y="100" as="targetPoint" />
          </mxGeometry>
        </mxCell>
        <mxCell id="mbz7nndvcrWf5GeIh5fR-32" value="" style="endArrow=none;html=1;rounded=0;fontSize=12;startSize=8;endSize=8;curved=1;entryX=0.5;entryY=0;entryDx=0;entryDy=0;exitX=0.5;exitY=1;exitDx=0;exitDy=0;" edge="1" parent="1" source="mbz7nndvcrWf5GeIh5fR-1" target="Oy01Yo5cFXe6RZpeeBl5-8">
          <mxGeometry relative="1" as="geometry">
            <mxPoint x="35" y="26" as="sourcePoint" />
            <mxPoint x="-129" y="110" as="targetPoint" />
          </mxGeometry>
        </mxCell>
        <mxCell id="mbz7nndvcrWf5GeIh5fR-33" value="" style="endArrow=none;html=1;rounded=0;fontSize=12;startSize=8;endSize=8;curved=1;entryX=0.5;entryY=0;entryDx=0;entryDy=0;exitX=1;exitY=0.5;exitDx=0;exitDy=0;" edge="1" parent="1" source="mbz7nndvcrWf5GeIh5fR-2" target="Oy01Yo5cFXe6RZpeeBl5-8">
          <mxGeometry relative="1" as="geometry">
            <mxPoint x="29" y="39" as="sourcePoint" />
            <mxPoint x="121" y="71" as="targetPoint" />
          </mxGeometry>
        </mxCell>
        <mxCell id="mbz7nndvcrWf5GeIh5fR-34" value="" style="endArrow=none;html=1;rounded=0;fontSize=12;startSize=8;endSize=8;curved=1;entryX=0.5;entryY=0;entryDx=0;entryDy=0;exitX=0.5;exitY=1;exitDx=0;exitDy=0;" edge="1" parent="1" source="mbz7nndvcrWf5GeIh5fR-3" target="Oy01Yo5cFXe6RZpeeBl5-8">
          <mxGeometry relative="1" as="geometry">
            <mxPoint x="39" y="49" as="sourcePoint" />
            <mxPoint x="131" y="81" as="targetPoint" />
          </mxGeometry>
        </mxCell>
        <mxCell id="mbz7nndvcrWf5GeIh5fR-35" value="" style="endArrow=none;html=1;rounded=0;fontSize=12;startSize=8;endSize=8;curved=1;entryX=0.5;entryY=0;entryDx=0;entryDy=0;exitX=0.5;exitY=1;exitDx=0;exitDy=0;" edge="1" parent="1" source="mbz7nndvcrWf5GeIh5fR-4" target="Oy01Yo5cFXe6RZpeeBl5-8">
          <mxGeometry relative="1" as="geometry">
            <mxPoint x="49" y="59" as="sourcePoint" />
            <mxPoint x="141" y="91" as="targetPoint" />
          </mxGeometry>
        </mxCell>
        <mxCell id="mbz7nndvcrWf5GeIh5fR-36" value="" style="endArrow=none;html=1;rounded=0;fontSize=12;startSize=8;endSize=8;curved=1;entryX=0.5;entryY=0;entryDx=0;entryDy=0;exitX=0.5;exitY=1;exitDx=0;exitDy=0;" edge="1" parent="1" source="mbz7nndvcrWf5GeIh5fR-8" target="Oy01Yo5cFXe6RZpeeBl5-3">
          <mxGeometry relative="1" as="geometry">
            <mxPoint x="214" y="65" as="sourcePoint" />
            <mxPoint x="121" y="71" as="targetPoint" />
          </mxGeometry>
        </mxCell>
        <mxCell id="mbz7nndvcrWf5GeIh5fR-37" value="" style="endArrow=none;html=1;rounded=0;fontSize=12;startSize=8;endSize=8;curved=1;entryX=0.5;entryY=0;entryDx=0;entryDy=0;exitX=0.5;exitY=1;exitDx=0;exitDy=0;" edge="1" parent="1" source="mbz7nndvcrWf5GeIh5fR-5" target="Oy01Yo5cFXe6RZpeeBl5-3">
          <mxGeometry relative="1" as="geometry">
            <mxPoint x="343" y="25" as="sourcePoint" />
            <mxPoint x="399" y="78" as="targetPoint" />
          </mxGeometry>
        </mxCell>
        <mxCell id="mbz7nndvcrWf5GeIh5fR-38" value="" style="endArrow=none;html=1;rounded=0;fontSize=12;startSize=8;endSize=8;curved=1;entryX=0.5;entryY=0;entryDx=0;entryDy=0;exitX=0.5;exitY=1;exitDx=0;exitDy=0;" edge="1" parent="1" source="mbz7nndvcrWf5GeIh5fR-6" target="Oy01Yo5cFXe6RZpeeBl5-3">
          <mxGeometry relative="1" as="geometry">
            <mxPoint x="353" y="35" as="sourcePoint" />
            <mxPoint x="409" y="88" as="targetPoint" />
          </mxGeometry>
        </mxCell>
        <mxCell id="mbz7nndvcrWf5GeIh5fR-39" value="" style="endArrow=none;html=1;rounded=0;fontSize=12;startSize=8;endSize=8;curved=1;entryX=1;entryY=0.5;entryDx=0;entryDy=0;exitX=0.5;exitY=1;exitDx=0;exitDy=0;" edge="1" parent="1" source="mbz7nndvcrWf5GeIh5fR-9" target="Oy01Yo5cFXe6RZpeeBl5-3">
          <mxGeometry relative="1" as="geometry">
            <mxPoint x="363" y="45" as="sourcePoint" />
            <mxPoint x="419" y="98" as="targetPoint" />
          </mxGeometry>
        </mxCell>
        <mxCell id="mbz7nndvcrWf5GeIh5fR-41" value="" style="endArrow=none;html=1;rounded=0;fontSize=12;startSize=8;endSize=8;curved=1;entryX=1;entryY=0.5;entryDx=0;entryDy=0;exitX=0;exitY=0.5;exitDx=0;exitDy=0;" edge="1" parent="1" source="mbz7nndvcrWf5GeIh5fR-12" target="Oy01Yo5cFXe6RZpeeBl5-3">
          <mxGeometry relative="1" as="geometry">
            <mxPoint x="373" y="55" as="sourcePoint" />
            <mxPoint x="429" y="108" as="targetPoint" />
          </mxGeometry>
        </mxCell>
        <mxCell id="mbz7nndvcrWf5GeIh5fR-42" value="" style="endArrow=none;html=1;rounded=0;fontSize=12;startSize=8;endSize=8;curved=1;exitX=0.5;exitY=1;exitDx=0;exitDy=0;entryX=0;entryY=0.5;entryDx=0;entryDy=0;" edge="1" parent="1" source="mbz7nndvcrWf5GeIh5fR-14" target="Oy01Yo5cFXe6RZpeeBl5-2">
          <mxGeometry relative="1" as="geometry">
            <mxPoint x="33" y="350" as="sourcePoint" />
            <mxPoint x="193" y="350" as="targetPoint" />
          </mxGeometry>
        </mxCell>
        <mxCell id="mbz7nndvcrWf5GeIh5fR-43" value="" style="endArrow=none;html=1;rounded=0;fontSize=12;startSize=8;endSize=8;curved=1;entryX=0;entryY=0.5;entryDx=0;entryDy=0;exitX=1;exitY=0.5;exitDx=0;exitDy=0;" edge="1" parent="1" source="mbz7nndvcrWf5GeIh5fR-15" target="Oy01Yo5cFXe6RZpeeBl5-2">
          <mxGeometry relative="1" as="geometry">
            <mxPoint x="51" y="421" as="sourcePoint" />
            <mxPoint x="83" y="449" as="targetPoint" />
          </mxGeometry>
        </mxCell>
        <mxCell id="mbz7nndvcrWf5GeIh5fR-44" value="" style="endArrow=none;html=1;rounded=0;fontSize=12;startSize=8;endSize=8;curved=1;exitX=0.5;exitY=0;exitDx=0;exitDy=0;entryX=0;entryY=0.5;entryDx=0;entryDy=0;" edge="1" parent="1" source="mbz7nndvcrWf5GeIh5fR-16" target="Oy01Yo5cFXe6RZpeeBl5-2">
          <mxGeometry relative="1" as="geometry">
            <mxPoint x="61" y="431" as="sourcePoint" />
            <mxPoint x="93" y="459" as="targetPoint" />
          </mxGeometry>
        </mxCell>
      </root>
    </mxGraphModel>
  </diagram>
</mxfile>
